<?xml version="1.0" encoding="UTF-8"?><svg id="a" xmlns="http://www.w3.org/2000/svg" width="364.73" height="451.67" viewBox="0 0 364.73 451.67"><path d="M260.93,3.74c-.02.34.11.71.14,1.04.65,8.87-3.49,5.11,6.22,14.88,1.17,10.07,6.78,14.61.76,20.42s-3.05,9.64-4.18,21.6c-1.02-.13-.7,1.36-.96,1.98s-.62,1.21-.8,1.84c-.97.24-1.77,1.17-1.93,2.18-.22,1.37-.82,2.57-1.86,3.51-.41.27-.81.61-1.05,1.05-.14.25.11.71-.04.95-1.03,1.65.3,4.55,2.2,4.68l1.74.12c6.17,5.17,2.77,14.03,4.52,18.1,2.99,6.97,1.31,13.1-2.62,18.89-.4.3-.61.99-1.26,1.82-2.16,1.18-5.15,1.92-7.01,4.07-2,2.32-1.49,6.87.59,8.65l6.68-3.55c2.18-1.16,5.36,2.64,7.63.12.57-.62,2.38.13,3.96.14,3.19,1.21,3.79,5.73,6.64,7.36l7.29,4.16c3.31,1.89,6.09,6.15,10.48,5.8,16.12-1.3,14.76,7.17,23.02.72,1.9-1.48,5.65-3.52,7.79-1.38,3.69,3.69,7.12,7.76,9.77,12.2,1.03,1.73.64,3.96,2.27,4.85,4.7,2.59,12.92-1.82,23.7,5.07,1.23,4.73-6.45,6.66-6.65,10.13-.3,5.15,6.89,6.6,3.44,13.49-.8.24-2.03.25-2.62.95-.56-1.08-9.52,2.08-10.2,4.65-1.76,6.62,6.72,7.74,9.17,9.78,4.21,2.86-3.05,21.54-5.17,24.04-1.41,1.67-3.29,3.1-2.54,5.68,4.35-.3,8.49,3.41,7.58,7.94-1.5,7.51-6.34,13.43-10.93,19.22-3.21,4.04-3.83,9.62-5.9,14.19-4.44,3.84-9.79,6.5-13.75,10.92-3.43,3.83-6.25,8.18-11.08,10.65l2.89,6.31c2.21,4.83-11.49,7.91-11.36,11.95-1.01.48-1.15,1.41-1.89,1.96-12.21,8.97-10.92-.81-16,7.14-6.84,10.69-8.7-5.42-28.77,1l-4.08,10.52c-1.38.93-3.28,4.07-5.01,4.05-.65,0-2.37.49-2.58,1.32l-3.9,14.9c-.83,3.17-.61,5.77-4.75,6.26-6.04.72-2.43,9.28-4.63,12.86-1.08,1.76-2.55,2.84-2.27,4.95.67,5.02,6.05,5.11,9.09,10.24-1.98,3.18-5.18,7.26-4.24,11.01.75,3,4.2,4.7,4.66,7.92-.42,1.77-2.61,2.12-3.56,3.75.22,3.19-1.08,7.06-4.32,7.88-3.79.95-4.26,3.67-6.3,6.41-2.01,2.7-7.04,3.3-9.91,4.99-4.38,2.59-8.03,1.15-12.32.08-4.83-1.21-10.17.04-14.82-.21-1.68,2.29-1.69,5.03-3.53,6.62-2.29,1.99-6.26-.12-8.77,1.61-3.22,2.22-5.89,6.23-10.1,7.03-14.84,2.82-15.74,8.77-22.8-.57-4.5-5.95,3.85-14.88-2.41-17.87-.02-.24-.03-.55-.04-.81-.04-3.28.32-6.6.32-9.84v-1.66c2.21-3.75,3.84-9.45,3.29-14.42-9.79-2.29-6.15-6.59-9.88-9.44.1-.75-.18-1.92-.04-2.63,1.57-2.01-1.01-3.8-1.28-5.83.23-.47-.02-1.36-.02-1.9.02-3.48,1.53-9.92-1.01-12.49-4.28-2.47-7.63,3.21-9.68,6.19-5.22,7.6-10.36,14.95-16.05,21.72-3.28,3.91-7.7,3.57-11.74,3.74-5.87.24-9.63-1.28-12.69-5.83-3.68-5.45-5.8-10.96-6.1-17.68-.08-1.78-3.25-2.27-4.33-1.87-.93.34-3.3.5-3,2.07.41,2.19,2.26,3.27,3.35,5.33-5.86,13.25-10.37,11.58-13.52,15.77-.72.96-2.09,1.19-2.99.86-1.96-.72-2.12-4.72-5.04-5.22-1.7-.29-2.79.58-3.63,1.97l-7.86,13.04c-2.75,4.56-10.02-3.1-10.17-7.24-.11-2.97-2.01-4.09-3.33-4.76-1.71-.86-4.4.45-5.7.18-4.12-.87-2.81-7.49-5.18-8.57l-5.07-2.3c-1.33-.6-1.93-3.5-.62-5.13,2.09-2.61,5.46-2.39,8.27-3.64,1.31-.58.33-3.48-.17-4.5-.65-1.34-4.79-.88-6.51-2.92-1.04-1.24,2.26-4.34.69-6.3s-7.26-.47-9.24-3.47c-1.05-1.59.58-3.56,1.81-4.44l10.37-7.5c9.82-7.11-10.55-23.94-11.18-36.63-1.03-20.7-13.43-30.11-.28-51.5,4.07-6.61,3.68-12.7,3.51-20.23l-.26-12.07c-.14-6.53,9.57-27.61,5.46-29.99l-10.07-5.85c-1.91-1.11-.03-4.89-.45-7.04-.76-3.87-2.09-7.21-3.19-10.47-.21-.5.21-1.29-.03-1.75,1.92-1.66,2.34-4.44,3.18-6.76.09-.25.01-.62,0-.87,4.2-4.05-2.09-6.89,7.15-17.45,3.87-4.43,3.28-10.7,7.1-16.65.21-.07.48,0,.7,0,.65-.02,1.44-.03,2.02-.58.31-.3.31-.87.16-1.3.24.04.51-.08.76-.07,1.08.03,8.97-4.37,8.24-6.64.41-.27.71-.78,1.15-.99.74-.35,1.14-1.02,1.14-1.85,0-.27.06-.56.04-.83.47.44.91.22,1.24-.13.57-.59.63-1.33.61-1.98,0-.23-.02-.48.01-.71,1.56-.66,3.72-.5,4.76-1.91.6.09,1.25-.02,1.85.02.85,1.77,3.36,2.31,5.56,2.06,10.05-1.14,13.53,2.18,16.3-1.44.83-1.09,2.13-2.9.9-4.46l2.94-6.43c.86-1.87,2.61-3.1,4.19-3.35,7.24-1.14,9.84,13.66,17.71,12.18,3.49-.66,3.64-9.21,8.27-16.74,4.18-4.39,9.27-4.73,15.37-2.92,1.95.58,5.01-.48,6.68,1.17.98.97,1.06,4.08,2.47,5.18,3.87,3.01,10.81,1.19,15-.83,4.87-2.35,11.38,6.11,22.33-8.01,2.72-3.5,6.11-6.11,8.96-9.28,2.47-2.75,6.32-2.08,9.4-3.15,4.8-1.67,7.79-5.76,11.46-9.1,8.56-7.78,9.65-10.41,25.22-4.61,3.4,1.26,4.69,5.3,7.43,8.04,13.03-10.53,7.13-19.58,5.59-35.3-.49-5.02,2.84-9.54,3.23-14.49.5-6.32,3.25-12.14,8.95-15.08,2.15-1.11,3.12-3.63,4.8-4.37l6.09-2.69c7.23-3.2,6.66-.11,10.95,2.37ZM279.95,261.72c1.28-2.66,2.96-5.01,4.82-7.28,8.01-1.19,3.67-6.54,13.32-13.52.27-.01.56.03.83,0,.95-.15,2.78.48,3.04-.78.9-.08,1.82-.23,2.71-.39.57-.1,1.26-.14,1.76-.49.71-.49.77-1.48.79-2.26l.02-.87c1.91-.64,4.66-7.3,2.84-9.57-3.5-4.36-10.35,4.14-14.42-4.03-16.98-.98-6.82-7.4-26.51-1.21-3.32,9.24-8.64,7.51-13.99,12.68-.38,4.97-1.92,10.32-1.26,15.37.55,4.27-1.28,7.26-1.62,10.99-.42,4.67,6.43,7.74,10.54,6.9l14.26-2.92c1.68-.34,2.35-1.54,2.87-2.61Z" fill="#1d1e1b"/></svg>